Coordinates
version=1
nRows=29
nColumns=24
inDegrees=yes

Units are S.I. units (second, meters, Newtons, ...)
Angles are in degrees.

endheader
time	pelvis_tilt	pelvis_list	pelvis_rotation	pelvis_tx	pelvis_ty	pelvis_tz	hip_flexion_r	hip_adduction_r	hip_rotation_r	knee_angle_r	ankle_angle_r	subtalar_angle_r	mtp_angle_r	hip_flexion_l	hip_adduction_l	hip_rotation_l	knee_angle_l	ankle_angle_l	subtalar_angle_l	mtp_angle_l	lumbar_extension	lumbar_bending	lumbar_rotation
      1.71200000	      0.70034818	      1.25474037	     -5.33611690	      1.37451752	      1.02256183	      0.31311661	     22.58649293	     -3.96026783	     -5.23919004	    -65.33646462	      1.06672963	     -6.05123111	     -5.43631181	      7.44004946	      3.63026308	     -5.74165988	    -14.17950070	      2.13415079	    -15.15501563	    -14.59992650	     -9.68892507	     -4.41115753	      0.26912529
      1.71616667	      0.68228176	      1.16430577	     -5.21740327	      1.37951642	      1.02316248	      0.31268129	     23.07252447	     -3.80579243	     -5.42158705	    -64.58215870	      1.55236535	     -5.87387161	     -5.41000491	      6.98120384	      3.59876557	     -5.68534120	    -13.84155640	      2.14038059	    -15.08561170	    -14.59660667	     -9.69348944	     -4.24471313	      0.21801341
      1.72033333	      0.90945040	      0.96656809	     -4.87842621	      1.38461600	      1.02428755	      0.31161950	     23.15988048	     -3.70452615	     -5.88782120	    -63.65274561	      1.98030780	     -5.62811567	     -5.33685438	      6.23785134	      3.53595949	     -5.30656757	    -13.47916635	      2.19964710	    -15.08645070	    -14.57842954	    -10.01730810	     -3.93098675	     -0.11598782
      1.72450000	      1.01503413	      0.83471785	     -4.67344348	      1.38962733	      1.02508133	      0.31091648	     23.43241585	     -3.58582521	     -6.18842601	    -62.75342616	      2.42123849	     -5.42786263	     -5.27791759	      5.63849566	      3.49369760	     -5.10057232	    -13.12610587	      2.22593573	    -15.08548537	    -14.55778121	    -10.17889117	     -3.70541982	     -0.29873035
      1.72866667	      1.07026504	      0.70919337	     -4.48829077	      1.39465391	      1.02574009	      0.31029311	     23.74747256	     -3.45496626	     -6.45928162	    -61.82146728	      2.84642643	     -5.25995229	     -5.23597933	      5.10918544	      3.44182528	     -4.92460385	    -12.80476354	      2.27108721	    -15.05978904	    -14.53607496	    -10.27878397	     -3.49480446	     -0.44690311
      1.73283333	      1.13597480	      0.59568119	     -4.32518671	      1.39966815	      1.02638252	      0.30970524	     24.03974687	     -3.33311221	     -6.70802940	    -60.84746307	      3.25028774	     -5.09420624	     -5.20841452	      4.55924645	      3.40024861	     -4.76750133	    -12.46510779	      2.30305032	    -15.06342147	    -14.51639789	    -10.38337761	     -3.29312488	     -0.57129666
      1.73700000	      1.25002296	      0.46925612	     -4.12394776	      1.40463712	      1.02706889	      0.30903552	     24.24997084	     -3.22331832	     -7.00637270	    -59.82003165	      3.66483978	     -5.02506687	     -5.18780782	      3.97358600	      3.35056085	     -4.56783722	    -12.14767249	      2.32931890	    -15.07761526	    -14.48560858	    -10.54827598	     -3.07084866	     -0.73313544
      1.74116667	      1.18343584	      0.42311828	     -4.04736046	      1.40960239	      1.02733107	      0.30872659	     24.70438686	     -3.10578725	     -7.12841290	    -58.83082178	      4.08455689	     -4.96648902	     -5.18191681	      3.59650694	      3.34477324	     -4.51157705	    -11.86047314	      2.36073340	    -15.05963826	    -14.47866831	    -10.48801759	     -2.97267772	     -0.75664128
      1.74533333	      1.29189568	      0.27474043	     -3.82530834	      1.41455460	      1.02796729	      0.30800421	     24.86564419	     -2.98944367	     -7.44810971	    -57.69126780	      4.42695163	     -4.82535718	     -5.18563455	      3.02897339	      3.26792752	     -4.26993143	    -11.56902527	      2.45741055	    -15.04382511	    -14.44836193	    -10.66425332	     -2.71427007	     -0.90752908
      1.74950000	      1.33331078	      0.19919384	     -3.71100777	      1.41951619	      1.02836750	      0.30755481	     25.13875229	     -2.88416376	     -7.63046811	    -56.57935526	      4.76624475	     -4.80380057	     -5.19270757	      2.53366984	      3.24629885	     -4.17025892	    -11.27896081	      2.49664056	    -15.07484513	    -14.42127368	    -10.72702314	     -2.55876265	     -1.01555387
      1.75366667	      1.33655793	      0.13375823	     -3.58189190	      1.42440378	      1.02866367	      0.30711690	     25.43809245	     -2.78746536	     -7.81024338	    -55.43360058	      5.11788641	     -4.77976940	     -5.20624867	      2.09827205	      3.22749201	     -4.04045897	    -11.01244253	      2.57253521	    -15.04848512	    -14.39582213	    -10.76372436	     -2.42568252	     -1.08250319
      1.75783333	      1.27768712	      0.12007267	     -3.51922963	      1.42927886	      1.02876257	      0.30687819	     25.82016270	     -2.69841010	     -7.89561810	    -54.29398147	      5.50551032	     -4.81846774	     -5.21288503	      1.73799030	      3.24792085	     -3.99750445	    -10.76287383	      2.62551979	    -15.04706937	    -14.38571439	    -10.72496248	     -2.36937625	     -1.11535605
      1.76200000	      1.36860927	      0.01025707	     -3.36935686	      1.43418536	      1.02918361	      0.30637076	     25.95378662	     -2.57872468	     -8.11459970	    -53.01209929	      5.74216733	     -4.82339495	     -5.24643833	      1.20700028	      3.18656210	     -3.85358894	    -10.50559734	      2.74819011	    -15.00156323	    -14.35376063	    -10.86974672	     -2.17381249	     -1.19569620
      1.76616667	      1.33567042	     -0.01666715	     -3.30415803	      1.43909248	      1.02928994	      0.30609691	     26.25211308	     -2.48824958	     -8.21279789	    -51.76184148	      6.03939304	     -4.85340467	     -5.27752280	      0.81334571	      3.19524671	     -3.80500615	    -10.25247171	      2.82952115	    -14.99774193	    -14.32852386	    -10.85167114	     -2.08854934	     -1.23280753
      1.77033333	      1.24883913	      0.00082385	     -3.26079643	      1.44393991	      1.02921525	      0.30591636	     26.61797225	     -2.42133418	     -8.25670184	    -50.51699261	      6.37662580	     -4.90894985	     -5.29032896	      0.49800462	      3.24205086	     -3.78069345	    -10.02546560	      2.91689952	    -14.98195875	    -14.31918933	    -10.77604378	     -2.06888340	     -1.24806652
      1.77450000	      1.25683237	     -0.06424394	     -3.14912495	      1.44880585	      1.02935649	      0.30555969	     26.80684662	     -2.31526310	     -8.40364052	    -49.14133172	      6.56542567	     -4.97413273	     -5.33905391	      0.07948598	      3.20808400	     -3.70203593	     -9.80975028	      3.06181193	    -14.90292913	    -14.29354188	    -10.82159591	     -1.93386649	     -1.27187438
      1.77866667	      1.16503437	      0.02006163	     -3.12959935	      1.45361678	      1.02913138	      0.30542039	     27.17012374	     -2.31134156	     -8.39709094	    -47.86789022	      6.87732888	     -5.03104840	     -5.34644275	     -0.22416722	      3.32864584	     -3.66874781	     -9.59462132	      3.19587196	    -14.88800248	    -14.28806357	    -10.73716726	     -1.99177961	     -1.28776242
      1.78283333	      1.07443326	     -0.00104325	     -3.07933209	      1.45851134	      1.02899577	      0.30526205	     27.44999305	     -2.20118210	     -8.44314456	    -46.45815657	      7.14704729	     -5.08754885	     -5.36809558	     -0.52590430	      3.32583571	     -3.68233735	     -9.39773623	      3.27722967	    -14.87645808	    -14.27936172	    -10.65187158	     -1.91906418	     -1.28682962
      1.78700000	      1.12790876	     -0.06170948	     -2.98473211	      1.46334178	      1.02910711	      0.30499532	     27.52457193	     -2.08429377	     -8.55366553	    -44.95163376	      7.26582262	     -5.23566787	     -5.43957414	     -0.98158280	      3.28742389	     -3.63988832	     -9.20620919	      3.47168180	    -14.71656964	    -14.25266646	    -10.75758761	     -1.79978338	     -1.30539970
      1.79116667	      1.06439821	     -0.04507617	     -2.93834164	      1.46822389	      1.02892165	      0.30482463	     27.74350919	     -2.02110680	     -8.58826525	    -43.47893275	      7.46763506	     -5.30223669	     -5.49645767	     -1.31359469	      3.32842750	     -3.64261800	     -9.00747202	      3.60433935	    -14.66659341	    -14.23660166	    -10.69816983	     -1.77025675	     -1.31275999
      1.79533333	      0.95730975	      0.05214197	     -2.91732561	      1.47303505	      1.02854011	      0.30472307	     28.03514003	     -2.02306951	     -8.55324420	    -42.04824335	      7.75360961	     -5.34569704	     -5.51343858	     -1.58679641	      3.45628572	     -3.62278123	     -8.82192481	      3.74632430	    -14.65161503	    -14.23115537	    -10.59076971	     -1.83049258	     -1.31907788
      1.79950000	      0.90897525	      0.02418504	     -2.83256608	      1.47788526	      1.02835724	      0.30453249	     28.16864773	     -1.92411173	     -8.62734211	    -40.45151712	      7.84476382	     -5.48010486	     -5.58924072	     -1.90869741	      3.43861967	     -3.62480622	     -8.67758899	      3.93362527	    -14.50558344	    -14.21529813	    -10.57307503	     -1.75840843	     -1.30748705
      1.80366667	      0.79247541	      0.09392077	     -2.81197134	      1.48273353	      1.02792652	      0.30444698	     28.40871210	     -1.89730755	     -8.60826126	    -38.91441715	      8.08943429	     -5.51361339	     -5.61878521	     -2.17056843	      3.53200258	     -3.64541548	     -8.50204865	      4.05998682	    -14.49869817	    -14.20939991	    -10.46324504	     -1.79511878	     -1.31777421
      1.80783333	      0.77242258	      0.08844050	     -2.72281315	      1.48759734	      1.02771565	      0.30425993	     28.46812808	     -1.82562905	     -8.67591214	    -37.24731832	      8.15103669	     -5.65716877	     -5.70697087	     -2.52797616	      3.53810809	     -3.64333441	     -8.35072046	      4.26984171	    -14.31174185	    -14.19502453	    -10.47134820	     -1.74162177	     -1.31891643
      1.81200000	      0.70343707	      0.13600155	     -2.68241190	      1.49247813	      1.02733199	      0.30416953	     28.59302344	     -1.78265157	     -8.67406412	    -35.60594605	      8.29821220	     -5.72005345	     -5.79765485	     -2.83729477	      3.60264668	     -3.67034431	     -8.19022800	      4.43281453	    -14.21312715	    -14.18216479	    -10.41289311	     -1.75033433	     -1.32787794
      1.81616667	      0.58053108	      0.21956032	     -2.65126201	      1.49735475	      1.02678887	      0.30408318	     28.77432566	     -1.77461903	     -8.65628223	    -33.96830531	      8.48325384	     -5.72803372	     -5.83638513	     -3.08203325	      3.70781373	     -3.68160206	     -8.04076271	      4.57721089	    -14.18857088	    -14.17677590	    -10.28994027	     -1.79771241	     -1.33018139
      1.82033333	      0.46790315	      0.28421642	     -2.57441244	      1.50222633	      1.02626476	      0.30392194	     28.90787547	     -1.76905887	     -8.69048991	    -32.26949431	      8.57721850	     -5.78601551	     -5.88339698	     -3.32239679	      3.78866067	     -3.66460620	     -7.91929080	      4.74616906	    -14.11352158	    -14.16998654	    -10.17791923	     -1.81685990	     -1.33714175
      1.82450000	      0.52616202	      0.30620959	     -2.48920554	      1.50704264	      1.02601394	      0.30377638	     28.81121015	     -1.72723294	     -8.74640630	    -30.49487138	      8.64408366	     -5.87184290	     -6.02293192	     -3.75489902	      3.82169920	     -3.67835154	     -7.79058610	      4.98152639	    -13.88843528	    -14.15719385	    -10.29427993	     -1.79785779	     -1.40217927
      1.82866667	      0.36618365	      0.40702381	     -2.43383298	      1.51195067	      1.02533325	      0.30368209	     28.96885067	     -1.74340888	     -8.74433138	    -28.75938915	      8.71715119	     -5.89200107	     -6.07256124	     -3.94716550	      3.93855018	     -3.67255907	     -7.66465720	      5.10751681	    -13.84375212	    -14.15182499	    -10.13233947	     -1.85950885	     -1.38990839
